<?xml version="1.0" encoding="UTF-8" standalone="no"?>
<!DOCTYPE svg PUBLIC "-//W3C//DTD SVG 1.1//EN"
 "http://www.w3.org/Graphics/SVG/1.1/DTD/svg11.dtd">
<!-- Generated by graphviz version 2.46.0 (20210118.1747)
 -->
<!-- Title: g Pages: 1 -->
<svg width="444pt" height="302pt"
 viewBox="0.00 0.00 444.00 302.00" xmlns="http://www.w3.org/2000/svg" xmlns:xlink="http://www.w3.org/1999/xlink">
<g id="graph0" class="graph" transform="scale(1 1) rotate(0) translate(4 298)">
<title>g</title>
<polygon fill="white" stroke="transparent" points="-4,4 -4,-298 440,-298 440,4 -4,4"/>
<!-- I1 -->
<g id="node1" class="node">
<title>I1</title>
<polygon fill="none" stroke="black" stroke-width="0" points="131,-137 77,-137 77,-101 131,-101 131,-137"/>
<polygon fill="none" stroke="black" points="92,-105 92,-133 116,-133 116,-105 92,-105"/>
<text text-anchor="start" x="97" y="-115.2" font-family="Times,serif" font-size="16.00">I1</text>
</g>
<!-- I2 -->
<g id="node5" class="node">
<title>I2</title>
<polygon fill="none" stroke="black" points="54,-36 0,-36 0,0 54,0 54,-36"/>
<text text-anchor="middle" x="27" y="-14.2" font-family="Times,serif" font-size="16.00">I2</text>
</g>
<!-- I1&#45;&gt;I2 -->
<g id="edge1" class="edge">
<title>I1:s&#45;&gt;I2:n</title>
<path fill="none" stroke="black" d="M104,-100C104,-100 46,-69 46,-69 46,-69 37.62,-54.45 31.99,-44.67"/>
<polygon fill="black" stroke="black" points="35.02,-42.92 27,-36 28.96,-46.41 35.02,-42.92"/>
<text text-anchor="middle" x="73" y="-57.8" font-family="Times,serif" font-size="14.00">input&#45;link</text>
</g>
<!-- I3 -->
<g id="node6" class="node">
<title>I3</title>
<polygon fill="none" stroke="black" points="131,-36 77,-36 77,0 131,0 131,-36"/>
<text text-anchor="middle" x="104" y="-14.2" font-family="Times,serif" font-size="16.00">I3</text>
</g>
<!-- I1&#45;&gt;I3 -->
<g id="edge2" class="edge">
<title>I1:s&#45;&gt;I3:n</title>
<path fill="none" stroke="black" d="M104,-100C104,-100 104,-64.37 104,-46.28"/>
<polygon fill="black" stroke="black" points="107.5,-46 104,-36 100.5,-46 107.5,-46"/>
<text text-anchor="middle" x="134.5" y="-57.8" font-family="Times,serif" font-size="14.00">output&#45;link</text>
</g>
<!-- S1 -->
<g id="node2" class="node">
<title>S1</title>
<polygon fill="none" stroke="black" stroke-width="0" points="345,-294 209,-294 209,-202 345,-202 345,-294"/>
<polygon fill="none" stroke="black" points="217,-262 217,-290 337,-290 337,-262 217,-262"/>
<text text-anchor="start" x="268" y="-272.2" font-family="Times,serif" font-size="16.00">S1</text>
<polygon fill="none" stroke="black" points="217,-234 217,-262 294,-262 294,-234 217,-234"/>
<text text-anchor="start" x="222" y="-244.2" font-family="Times,serif" font-size="16.00"> superstate</text>
<polygon fill="none" stroke="black" points="294,-234 294,-262 337,-262 337,-234 294,-234"/>
<text text-anchor="start" x="304.5" y="-244.2" font-family="Times,serif" font-size="16.00"> nil</text>
<polygon fill="none" stroke="black" points="217,-206 217,-234 294,-234 294,-206 217,-206"/>
<text text-anchor="start" x="239.5" y="-216.2" font-family="Times,serif" font-size="16.00"> type</text>
<polygon fill="none" stroke="black" points="294,-206 294,-234 337,-234 337,-206 294,-206"/>
<text text-anchor="start" x="299" y="-216.2" font-family="Times,serif" font-size="16.00"> state</text>
</g>
<!-- S1&#45;&gt;I1 -->
<g id="edge3" class="edge">
<title>S1:s&#45;&gt;I1:n</title>
<path fill="none" stroke="black" d="M277,-202C277,-202 222,-184 222,-184 222,-184 141.84,-152.75 113.66,-141.76"/>
<polygon fill="black" stroke="black" points="114.59,-138.37 104,-138 112.05,-144.89 114.59,-138.37"/>
<text text-anchor="middle" x="227.5" y="-172.8" font-family="Times,serif" font-size="14.00">io</text>
</g>
<!-- E1 -->
<g id="node3" class="node">
<title>E1</title>
<polygon fill="none" stroke="black" stroke-width="0" points="283.5,-151 166.5,-151 166.5,-87 283.5,-87 283.5,-151"/>
<polygon fill="none" stroke="black" points="175,-119 175,-147 276,-147 276,-119 175,-119"/>
<text text-anchor="start" x="216" y="-129.2" font-family="Times,serif" font-size="16.00">E1</text>
<polygon fill="none" stroke="black" points="175,-91 175,-119 253,-119 253,-91 175,-91"/>
<text text-anchor="start" x="180" y="-101.2" font-family="Times,serif" font-size="16.00"> present&#45;id</text>
<polygon fill="none" stroke="black" points="253,-91 253,-119 276,-119 276,-91 253,-91"/>
<text text-anchor="start" x="258" y="-101.2" font-family="Times,serif" font-size="16.00"> 1</text>
</g>
<!-- S1&#45;&gt;E1 -->
<g id="edge5" class="edge">
<title>S1:s&#45;&gt;E1:n</title>
<path fill="none" stroke="black" d="M277,-202C277,-202 246,-184 246,-184 246,-184 236.74,-169.45 230.52,-159.67"/>
<polygon fill="black" stroke="black" points="233.32,-157.56 225,-151 227.42,-161.32 233.32,-157.56"/>
<text text-anchor="middle" x="267" y="-172.8" font-family="Times,serif" font-size="14.00">epmem</text>
</g>
<!-- L1 -->
<g id="node4" class="node">
<title>L1</title>
<polygon fill="none" stroke="black" stroke-width="0" points="356,-137 302,-137 302,-101 356,-101 356,-137"/>
<polygon fill="none" stroke="black" points="314,-105 314,-133 344,-133 344,-105 314,-105"/>
<text text-anchor="start" x="319.5" y="-115.2" font-family="Times,serif" font-size="16.00">L1</text>
</g>
<!-- S1&#45;&gt;L1 -->
<g id="edge6" class="edge">
<title>S1:s&#45;&gt;L1:n</title>
<path fill="none" stroke="black" d="M277,-202C277,-202 308.74,-162.94 322.62,-145.85"/>
<polygon fill="black" stroke="black" points="325.41,-147.97 329,-138 319.98,-143.55 325.41,-147.97"/>
<text text-anchor="middle" x="320" y="-172.8" font-family="Times,serif" font-size="14.00">smem</text>
</g>
<!-- R1 -->
<g id="node7" class="node">
<title>R1</title>
<polygon fill="none" stroke="black" points="428,-137 374,-137 374,-101 428,-101 428,-137"/>
<text text-anchor="middle" x="401" y="-115.2" font-family="Times,serif" font-size="16.00">R1</text>
</g>
<!-- S1&#45;&gt;R1 -->
<g id="edge4" class="edge">
<title>S1:s&#45;&gt;R1:n</title>
<path fill="none" stroke="black" d="M277,-202C277,-202 341,-184 341,-184 341,-184 376.17,-157.04 392.66,-144.4"/>
<polygon fill="black" stroke="black" points="395.19,-146.86 401,-138 390.93,-141.31 395.19,-146.86"/>
<text text-anchor="middle" x="393" y="-172.8" font-family="Times,serif" font-size="14.00">reward&#45;link</text>
</g>
<!-- R2 -->
<g id="node8" class="node">
<title>R2</title>
<polygon fill="none" stroke="black" points="209,-36 155,-36 155,0 209,0 209,-36"/>
<text text-anchor="middle" x="182" y="-14.2" font-family="Times,serif" font-size="16.00">R2</text>
</g>
<!-- E1&#45;&gt;R2 -->
<g id="edge7" class="edge">
<title>E1:s&#45;&gt;R2:n</title>
<path fill="none" stroke="black" d="M225,-87C225,-87 202,-69 202,-69 202,-69 193.18,-54.45 187.25,-44.67"/>
<polygon fill="black" stroke="black" points="190.18,-42.74 182,-36 184.19,-46.37 190.18,-42.74"/>
<text text-anchor="middle" x="217.5" y="-57.8" font-family="Times,serif" font-size="14.00">result</text>
</g>
<!-- C1 -->
<g id="node9" class="node">
<title>C1</title>
<polygon fill="none" stroke="black" points="281,-36 227,-36 227,0 281,0 281,-36"/>
<text text-anchor="middle" x="254" y="-14.2" font-family="Times,serif" font-size="16.00">C1</text>
</g>
<!-- E1&#45;&gt;C1 -->
<g id="edge8" class="edge">
<title>E1:s&#45;&gt;C1:n</title>
<path fill="none" stroke="black" d="M225,-87C225,-87 240.64,-59.5 248.95,-44.88"/>
<polygon fill="black" stroke="black" points="252.1,-46.42 254,-36 246.01,-42.96 252.1,-46.42"/>
<text text-anchor="middle" x="270.5" y="-57.8" font-family="Times,serif" font-size="14.00">command</text>
</g>
<!-- R3 -->
<g id="node10" class="node">
<title>R3</title>
<polygon fill="none" stroke="black" points="356,-36 302,-36 302,0 356,0 356,-36"/>
<text text-anchor="middle" x="329" y="-14.2" font-family="Times,serif" font-size="16.00">R3</text>
</g>
<!-- L1&#45;&gt;R3 -->
<g id="edge9" class="edge">
<title>L1:s&#45;&gt;R3:n</title>
<path fill="none" stroke="black" d="M329,-100C329,-100 329,-64.37 329,-46.28"/>
<polygon fill="black" stroke="black" points="332.5,-46 329,-36 325.5,-46 332.5,-46"/>
<text text-anchor="middle" x="344.5" y="-57.8" font-family="Times,serif" font-size="14.00">result</text>
</g>
<!-- C2 -->
<g id="node11" class="node">
<title>C2</title>
<polygon fill="none" stroke="black" points="428,-36 374,-36 374,0 428,0 428,-36"/>
<text text-anchor="middle" x="401" y="-14.2" font-family="Times,serif" font-size="16.00">C2</text>
</g>
<!-- L1&#45;&gt;C2 -->
<g id="edge10" class="edge">
<title>L1:s&#45;&gt;C2:n</title>
<path fill="none" stroke="black" d="M329,-100C329,-100 364,-69 364,-69 364,-69 382.7,-52.32 393.51,-42.68"/>
<polygon fill="black" stroke="black" points="395.87,-45.27 401,-36 391.21,-40.04 395.87,-45.27"/>
<text text-anchor="middle" x="408.5" y="-57.8" font-family="Times,serif" font-size="14.00">command</text>
</g>
</g>
</svg>
