<?xml version="1.0" encoding="UTF-8" standalone="no"?>
<!DOCTYPE svg PUBLIC "-//W3C//DTD SVG 1.1//EN"
 "http://www.w3.org/Graphics/SVG/1.1/DTD/svg11.dtd">
<!-- Generated by graphviz version 2.46.0 (20210118.1747)
 -->
<!-- Title: g Pages: 1 -->
<svg width="140pt" height="131pt"
 viewBox="0.00 0.00 140.00 131.00" xmlns="http://www.w3.org/2000/svg" xmlns:xlink="http://www.w3.org/1999/xlink">
<g id="graph0" class="graph" transform="scale(1 1) rotate(0) translate(4 127)">
<title>g</title>
<polygon fill="white" stroke="transparent" points="-4,4 -4,-127 136,-127 136,4 -4,4"/>
<!-- S1 -->
<g id="node1" class="node">
<title>S1</title>
<polygon fill="none" stroke="black" stroke-width="0" points="90,-123 36,-123 36,-87 90,-87 90,-123"/>
<polygon fill="none" stroke="black" points="48,-91 48,-119 78,-119 78,-91 48,-91"/>
<text text-anchor="start" x="54" y="-101.2" font-family="Times,serif" font-size="16.00">S1</text>
</g>
<!-- B1 -->
<g id="node2" class="node">
<title>B1</title>
<polygon fill="none" stroke="black" points="54,-36 0,-36 0,0 54,0 54,-36"/>
<text text-anchor="middle" x="27" y="-14.2" font-family="Times,serif" font-size="16.00">B1</text>
</g>
<!-- S1&#45;&gt;B1 -->
<g id="edge1" class="edge">
<title>S1:s&#45;&gt;B1:n</title>
<path fill="none" stroke="black" d="M63,-87C63,-87 48,-69 48,-69 48,-69 38.74,-54.45 32.52,-44.67"/>
<polygon fill="black" stroke="black" points="35.32,-42.56 27,-36 29.42,-46.32 35.32,-42.56"/>
<text text-anchor="middle" x="62.5" y="-57.8" font-family="Times,serif" font-size="14.00">Bank</text>
</g>
<!-- O2 -->
<g id="node3" class="node">
<title>O2</title>
<polygon fill="none" stroke="black" points="126,-36 72,-36 72,0 126,0 126,-36"/>
<text text-anchor="middle" x="99" y="-14.2" font-family="Times,serif" font-size="16.00">O2</text>
</g>
<!-- S1&#45;&gt;O2 -->
<g id="edge2" class="edge">
<title>S1:s&#45;&gt;O2:n</title>
<path fill="none" stroke="black" d="M63,-87C63,-87 77,-69 77,-69 77,-69 86.93,-54.1 93.45,-44.33"/>
<polygon fill="black" stroke="black" points="96.37,-46.26 99,-36 90.54,-42.38 96.37,-46.26"/>
<text text-anchor="middle" x="109" y="-57.8" font-family="Times,serif" font-size="14.00">operator</text>
</g>
</g>
</svg>
